<mxfile host="app.diagrams.net" agent="Mozilla/5.0 (Windows NT 10.0; Win64; x64) AppleWebKit/537.36 (KHTML, like Gecko) Chrome/127.0.0.0 Safari/537.36 OPR/113.0.0.0" version="24.7.14">
  <diagram name="Page-1" id="5f0bae14-7c28-e335-631c-24af17079c00">
    <mxGraphModel grid="1" page="1" gridSize="10" guides="1" tooltips="1" connect="1" arrows="1" fold="1" pageScale="1" pageWidth="1100" pageHeight="850" background="none" math="0" shadow="0">
      <root>
        <mxCell id="0" />
        <mxCell id="1" parent="0" />
        <mxCell id="1zxcUX33yYw2YeJ5-VFE-9" value="" style="rounded=0;whiteSpace=wrap;html=1;" vertex="1" parent="1">
          <mxGeometry x="290" y="60" width="380" height="330" as="geometry" />
        </mxCell>
        <mxCell id="1zxcUX33yYw2YeJ5-VFE-1" value="&amp;lt;&amp;lt;Dispositivo&amp;gt;&amp;gt;&lt;div&gt;: Cliente&lt;/div&gt;" style="verticalAlign=top;align=center;spacingTop=8;spacingLeft=2;spacingRight=12;shape=cube;size=10;direction=south;fontStyle=4;html=1;rounded=0;shadow=0;comic=0;labelBackgroundColor=none;strokeWidth=1;fontFamily=Verdana;fontSize=12" vertex="1" parent="1">
          <mxGeometry x="10" y="140" width="180" height="160" as="geometry" />
        </mxCell>
        <mxCell id="1zxcUX33yYw2YeJ5-VFE-2" value="«Artefacto»&lt;br&gt;&lt;b&gt;Ionic + angular&lt;/b&gt;" style="html=1;rounded=0;shadow=0;comic=0;labelBackgroundColor=none;strokeWidth=1;fontFamily=Verdana;fontSize=12;align=center;" vertex="1" parent="1">
          <mxGeometry x="50" y="200" width="110" height="50" as="geometry" />
        </mxCell>
        <mxCell id="1zxcUX33yYw2YeJ5-VFE-7" value="Interfaz web/&lt;div&gt;Escritorio&lt;/div&gt;" style="html=1;rounded=0;shadow=0;comic=0;labelBackgroundColor=none;strokeWidth=1;fontFamily=Verdana;fontSize=12;align=center;" vertex="1" parent="1">
          <mxGeometry x="40" y="350" width="120" height="60" as="geometry" />
        </mxCell>
        <mxCell id="1zxcUX33yYw2YeJ5-VFE-12" value="" style="endArrow=none;html=1;rounded=0;exitX=0.523;exitY=-0.004;exitDx=0;exitDy=0;exitPerimeter=0;entryX=0.49;entryY=0.992;entryDx=0;entryDy=0;entryPerimeter=0;" edge="1" parent="1" source="1zxcUX33yYw2YeJ5-VFE-1" target="39150e848f15840c-2">
          <mxGeometry width="50" height="50" relative="1" as="geometry">
            <mxPoint x="430" y="350" as="sourcePoint" />
            <mxPoint x="480" y="300" as="targetPoint" />
          </mxGeometry>
        </mxCell>
        <mxCell id="1zxcUX33yYw2YeJ5-VFE-13" value="&amp;lt;&amp;lt;Internet&amp;gt;&amp;gt;" style="edgeLabel;html=1;align=center;verticalAlign=middle;resizable=0;points=[];" connectable="0" vertex="1" parent="1zxcUX33yYw2YeJ5-VFE-12">
          <mxGeometry x="-0.1244" y="3" relative="1" as="geometry">
            <mxPoint as="offset" />
          </mxGeometry>
        </mxCell>
        <mxCell id="1zxcUX33yYw2YeJ5-VFE-17" value="" style="group" connectable="0" vertex="1" parent="1">
          <mxGeometry x="320" y="120" width="310" height="210" as="geometry" />
        </mxCell>
        <mxCell id="39150e848f15840c-2" value="&amp;lt;&amp;lt;Dispositivo&amp;gt;&amp;gt;&lt;div&gt;:Servidor Backend&lt;/div&gt;" style="verticalAlign=top;align=center;spacingTop=8;spacingLeft=2;spacingRight=12;shape=cube;size=10;direction=south;fontStyle=4;html=1;rounded=0;shadow=0;comic=0;labelBackgroundColor=none;strokeWidth=1;fontFamily=Verdana;fontSize=12" vertex="1" parent="1zxcUX33yYw2YeJ5-VFE-17">
          <mxGeometry width="310" height="210" as="geometry" />
        </mxCell>
        <mxCell id="39150e848f15840c-8" value="«Backend»&lt;br&gt;&lt;b&gt;Node js&lt;/b&gt;" style="html=1;rounded=0;shadow=0;comic=0;labelBackgroundColor=none;strokeWidth=1;fontFamily=Verdana;fontSize=12;align=center;" vertex="1" parent="1zxcUX33yYw2YeJ5-VFE-17">
          <mxGeometry x="20" y="90" width="120" height="60" as="geometry" />
        </mxCell>
        <mxCell id="1zxcUX33yYw2YeJ5-VFE-16" value="«Base de datos»&lt;br&gt;&lt;b&gt;Mongo DB&lt;/b&gt;" style="html=1;rounded=0;shadow=0;comic=0;labelBackgroundColor=none;strokeWidth=1;fontFamily=Verdana;fontSize=12;align=center;" vertex="1" parent="1zxcUX33yYw2YeJ5-VFE-17">
          <mxGeometry x="170" y="90" width="120" height="60" as="geometry" />
        </mxCell>
        <mxCell id="1zxcUX33yYw2YeJ5-VFE-21" value="" style="endArrow=none;html=1;rounded=0;exitX=0;exitY=0;exitDx=70;exitDy=0;exitPerimeter=0;entryX=0;entryY=0.5;entryDx=0;entryDy=0;" edge="1" parent="1" source="1zxcUX33yYw2YeJ5-VFE-18" target="1zxcUX33yYw2YeJ5-VFE-22">
          <mxGeometry width="50" height="50" relative="1" as="geometry">
            <mxPoint x="670" y="555" as="sourcePoint" />
            <mxPoint x="650" y="495" as="targetPoint" />
          </mxGeometry>
        </mxCell>
        <mxCell id="1zxcUX33yYw2YeJ5-VFE-23" value="&amp;lt;&amp;lt;Intranet&amp;gt;&amp;gt;" style="edgeLabel;html=1;align=center;verticalAlign=middle;resizable=0;points=[];" connectable="0" vertex="1" parent="1zxcUX33yYw2YeJ5-VFE-21">
          <mxGeometry x="-0.0028" relative="1" as="geometry">
            <mxPoint as="offset" />
          </mxGeometry>
        </mxCell>
        <mxCell id="1zxcUX33yYw2YeJ5-VFE-22" value="Datos de sensores" style="rounded=0;whiteSpace=wrap;html=1;" vertex="1" parent="1">
          <mxGeometry x="660" y="465" width="120" height="60" as="geometry" />
        </mxCell>
        <mxCell id="1zxcUX33yYw2YeJ5-VFE-24" value="" style="group" connectable="0" vertex="1" parent="1">
          <mxGeometry x="350" y="425" width="190" height="150" as="geometry" />
        </mxCell>
        <mxCell id="1zxcUX33yYw2YeJ5-VFE-18" value="&amp;lt;&amp;lt;Dispositivo&amp;gt;&amp;gt;&lt;div&gt;: Arduino&lt;/div&gt;" style="verticalAlign=top;align=center;spacingTop=8;spacingLeft=2;spacingRight=12;shape=cube;size=10;direction=south;fontStyle=4;html=1;rounded=0;shadow=0;comic=0;labelBackgroundColor=none;strokeWidth=1;fontFamily=Verdana;fontSize=12" vertex="1" parent="1zxcUX33yYw2YeJ5-VFE-24">
          <mxGeometry width="190" height="150" as="geometry" />
        </mxCell>
        <mxCell id="1zxcUX33yYw2YeJ5-VFE-19" value="«Controlador»&lt;br&gt;&lt;b&gt;Sensores&amp;nbsp;&lt;/b&gt;" style="html=1;rounded=0;shadow=0;comic=0;labelBackgroundColor=none;strokeWidth=1;fontFamily=Verdana;fontSize=12;align=center;" vertex="1" parent="1zxcUX33yYw2YeJ5-VFE-24">
          <mxGeometry x="40" y="60" width="110" height="40" as="geometry" />
        </mxCell>
        <mxCell id="1zxcUX33yYw2YeJ5-VFE-25" value="" style="endArrow=none;html=1;rounded=0;exitX=0;exitY=0;exitDx=0;exitDy=90;exitPerimeter=0;entryX=0.998;entryY=0.581;entryDx=0;entryDy=0;entryPerimeter=0;" edge="1" parent="1" source="1zxcUX33yYw2YeJ5-VFE-18" target="39150e848f15840c-2">
          <mxGeometry width="50" height="50" relative="1" as="geometry">
            <mxPoint x="210" y="250" as="sourcePoint" />
            <mxPoint x="450" y="350" as="targetPoint" />
          </mxGeometry>
        </mxCell>
        <mxCell id="1zxcUX33yYw2YeJ5-VFE-26" value="&amp;lt;&amp;lt;Internet&amp;gt;&amp;gt;" style="edgeLabel;html=1;align=center;verticalAlign=middle;resizable=0;points=[];" connectable="0" vertex="1" parent="1zxcUX33yYw2YeJ5-VFE-25">
          <mxGeometry x="-0.1244" y="3" relative="1" as="geometry">
            <mxPoint as="offset" />
          </mxGeometry>
        </mxCell>
        <mxCell id="1zxcUX33yYw2YeJ5-VFE-27" value="" style="endArrow=none;html=1;rounded=0;entryX=0.5;entryY=0;entryDx=0;entryDy=0;" edge="1" parent="1" source="1zxcUX33yYw2YeJ5-VFE-1" target="1zxcUX33yYw2YeJ5-VFE-7">
          <mxGeometry width="50" height="50" relative="1" as="geometry">
            <mxPoint x="90" y="320" as="sourcePoint" />
            <mxPoint x="90" y="330" as="targetPoint" />
          </mxGeometry>
        </mxCell>
        <mxCell id="1zxcUX33yYw2YeJ5-VFE-28" value="&amp;lt;&amp;lt;Internet&amp;gt;&amp;gt;" style="edgeLabel;html=1;align=center;verticalAlign=middle;resizable=0;points=[];" connectable="0" vertex="1" parent="1zxcUX33yYw2YeJ5-VFE-27">
          <mxGeometry x="-0.1244" y="3" relative="1" as="geometry">
            <mxPoint as="offset" />
          </mxGeometry>
        </mxCell>
      </root>
    </mxGraphModel>
  </diagram>
</mxfile>
